name D:\PhD\Datasets\SharingData_IBEC_VALDUCE\RM1_Comp_0001.mot
datacolumns 46
datarows 12
range 2.51000000 2.62000000
endheader
                time	         pelvis_tilt	     pelvis_rotation	           pelvis_tx	           pelvis_ty	           pelvis_tz	       hip_flexion_r	     hip_adduction_r	      hip_rotation_r	        knee_angle_r	       ankle_angle_r	    subtalar_angle_r	         mtp_angle_r	       hip_flexion_l	     hip_adduction_l	      hip_rotation_l	        knee_angle_l	       ankle_angle_l	    subtalar_angle_l	         mtp_angle_l	    lumbar_extension	      lumbar_bending	     lumbar_rotation	          arm_flex_r	           arm_add_r	           arm_rot_r	        elbow_flex_r	           pro_sup_r	        wrist_flex_r	         wrist_dev_r	          arm_flex_l	           arm_add_l	           arm_rot_l	        elbow_flex_l	           pro_sup_l	        wrist_flex_l	         wrist_dev_l	          end_eff_tx	          end_eff_ty	          end_eff_tz	             goal_tx	             goal_ty	             goal_tz	            elbow_tx	            elbow_ty	            elbow_tz	
          2.51000000	          0.00000000	          0.00000000	        316.14916431	        510.41480997	        360.38205563	          0.00000000	          0.00000000	          0.00000000	          0.00000000	          0.00000000	          0.00000000	          0.00000000	          0.00000000	          0.00000000	          0.00000000	          0.00000000	          0.00000000	          0.00000000	          0.00000000	         -0.91669518	          3.81216693	         -2.99456573	         18.15261078	        -48.73244476	          8.26390934	         87.95688629	         91.13146210	          0.00000000	          0.00000000	          0.00000000	          0.00000000	          0.00000000	          0.00000000	          0.00000000	          0.00000000	          0.00000000	        647.16376384	        477.09476037	        624.37164689	        884.54031010	        674.39322398	        575.57627498	        257.98639081	        390.92722125	        756.28003719	
          2.52000000	          0.00000000	          0.00000000	        316.16837704	        510.35784689	        360.23262914	          0.00000000	          0.00000000	          0.00000000	          0.00000000	          0.00000000	          0.00000000	          0.00000000	          0.00000000	          0.00000000	          0.00000000	          0.00000000	          0.00000000	          0.00000000	          0.00000000	         -0.95568293	          3.79050612	         -2.93118429	         18.77545166	        -48.85930634	          8.39365768	         87.95029449	         91.16510010	          0.00000000	          0.00000000	          0.00000000	          0.00000000	          0.00000000	          0.00000000	          0.00000000	          0.00000000	          0.00000000	        649.60467074	        480.94359949	        624.00691524	        884.53532401	        674.37491718	        575.56697028	        261.36073080	        392.37294515	        756.91215137	
          2.53000000	          0.00000000	          0.00000000	        316.21249909	        510.30502555	        360.08201736	          0.00000000	          0.00000000	          0.00000000	          0.00000000	          0.00000000	          0.00000000	          0.00000000	          0.00000000	          0.00000000	          0.00000000	          0.00000000	          0.00000000	          0.00000000	          0.00000000	         -0.92991316	          3.75806451	         -2.86721730	         19.39732933	        -48.95750046	          8.62764740	         87.88706970	         91.01014709	          0.00000000	          0.00000000	          0.00000000	          0.00000000	          0.00000000	          0.00000000	          0.00000000	          0.00000000	          0.00000000	        652.07632101	        484.98517551	        623.83975076	        884.55250607	        674.37267125	        575.55962782	        264.66232861	        393.96808672	        757.48101792	
          2.54000000	          0.00000000	          0.00000000	        316.25726385	        510.23957319	        359.91594382	          0.00000000	          0.00000000	          0.00000000	          0.00000000	          0.00000000	          0.00000000	          0.00000000	          0.00000000	          0.00000000	          0.00000000	          0.00000000	          0.00000000	          0.00000000	          0.00000000	         -0.97656989	          3.73461509	         -2.79708076	         20.04122543	        -49.05232239	          8.78259468	         87.90699005	         90.87707520	          0.00000000	          0.00000000	          0.00000000	          0.00000000	          0.00000000	          0.00000000	          0.00000000	          0.00000000	          0.00000000	        654.50844084	        488.85470180	        623.51381413	        884.52547644	        674.36968601	        575.59526003	        267.94469106	        395.36449018	        757.93396540	
          2.55000000	          0.00000000	          0.00000000	        316.31930659	        510.20541866	        359.75143664	          0.00000000	          0.00000000	          0.00000000	          0.00000000	          0.00000000	          0.00000000	          0.00000000	          0.00000000	          0.00000000	          0.00000000	          0.00000000	          0.00000000	          0.00000000	          0.00000000	         -1.00266635	          3.70888829	         -2.75071144	         20.66099548	        -49.04442596	          9.01279545	         87.88183594	         90.73501587	          0.00000000	          0.00000000	          0.00000000	          0.00000000	          0.00000000	          0.00000000	          0.00000000	          0.00000000	          0.00000000	        656.87635760	        492.73946554	        623.17330886	        884.54334595	        674.39239626	        575.55797270	        271.24429065	        396.85638631	        758.49766355	
          2.56000000	          0.00000000	          0.00000000	        316.38791307	        510.15969357	        359.60281197	          0.00000000	          0.00000000	          0.00000000	          0.00000000	          0.00000000	          0.00000000	          0.00000000	          0.00000000	          0.00000000	          0.00000000	          0.00000000	          0.00000000	          0.00000000	          0.00000000	         -1.01417398	          3.66529012	         -2.68170953	         21.20649910	        -49.17217255	          9.19836998	         87.92894745	         90.67054749	          0.00000000	          0.00000000	          0.00000000	          0.00000000	          0.00000000	          0.00000000	          0.00000000	          0.00000000	          0.00000000	        659.33642811	        496.56799486	        622.98524608	        884.53777073	        674.38318579	        575.58121525	        274.52227029	        397.97546892	        759.04103388	
          2.57000000	          0.00000000	          0.00000000	        316.46891562	        510.07407964	        359.41810991	          0.00000000	          0.00000000	          0.00000000	          0.00000000	          0.00000000	          0.00000000	          0.00000000	          0.00000000	          0.00000000	          0.00000000	          0.00000000	          0.00000000	          0.00000000	          0.00000000	         -0.98536098	          3.63013554	         -2.62294340	         21.77462196	        -49.23877716	          9.39158535	         87.87181091	         90.55888367	          0.00000000	          0.00000000	          0.00000000	          0.00000000	          0.00000000	          0.00000000	          0.00000000	          0.00000000	          0.00000000	        661.71135578	        500.28199179	        622.57797723	        884.53520555	        674.35578651	        575.57630328	        277.70961984	        399.39516739	        759.34995635	
          2.58000000	          0.00000000	          0.00000000	        316.57392109	        510.02843777	        359.26271884	          0.00000000	          0.00000000	          0.00000000	          0.00000000	          0.00000000	          0.00000000	          0.00000000	          0.00000000	          0.00000000	          0.00000000	          0.00000000	          0.00000000	          0.00000000	          0.00000000	         -0.97417486	          3.59373403	         -2.54812860	         22.32455063	        -49.33763504	          9.56987000	         87.86060333	         90.56494904	          0.00000000	          0.00000000	          0.00000000	          0.00000000	          0.00000000	          0.00000000	          0.00000000	          0.00000000	          0.00000000	        663.95851673	        504.07293940	        622.16396017	        884.53909251	        674.35162297	        575.57297361	        280.92117174	        400.71833623	        759.83447376	
          2.59000000	          0.00000000	          0.00000000	        316.71406208	        509.97779449	        359.09147689	          0.00000000	          0.00000000	          0.00000000	          0.00000000	          0.00000000	          0.00000000	          0.00000000	          0.00000000	          0.00000000	          0.00000000	          0.00000000	          0.00000000	          0.00000000	          0.00000000	         -0.98365653	          3.56919432	         -2.46294188	         22.88888931	        -49.43672562	          9.73589611	         87.84539795	         90.52086639	          0.00000000	          0.00000000	          0.00000000	          0.00000000	          0.00000000	          0.00000000	          0.00000000	          0.00000000	          0.00000000	        666.25679466	        507.73167284	        621.78988633	        884.54487531	        674.36858445	        575.57327589	        284.15255145	        402.32612907	        760.13602072	
          2.60000000	          0.00000000	          0.00000000	        316.87199939	        509.94146133	        358.92945230	          0.00000000	          0.00000000	          0.00000000	          0.00000000	          0.00000000	          0.00000000	          0.00000000	          0.00000000	          0.00000000	          0.00000000	          0.00000000	          0.00000000	          0.00000000	          0.00000000	         -0.95248187	          3.52123022	         -2.35394287	         23.29509163	        -49.46578598	          9.82451630	         87.85150909	         90.42997742	          0.00000000	          0.00000000	          0.00000000	          0.00000000	          0.00000000	          0.00000000	          0.00000000	          0.00000000	          0.00000000	        668.52523364	        511.27213230	        621.27823594	        884.55324539	        674.36925969	        575.57080400	        287.36540468	        403.65503582	        760.43117214	
          2.61000000	          0.00000000	          0.00000000	        317.06836715	        509.91060573	        358.75699027	          0.00000000	          0.00000000	          0.00000000	          0.00000000	          0.00000000	          0.00000000	          0.00000000	          0.00000000	          0.00000000	          0.00000000	          0.00000000	          0.00000000	          0.00000000	          0.00000000	         -0.86426896	          3.44900966	         -2.21183181	         23.63212776	        -49.58246994	          9.85846806	         87.86187744	         90.39861298	          0.00000000	          0.00000000	          0.00000000	          0.00000000	          0.00000000	          0.00000000	          0.00000000	          0.00000000	          0.00000000	        670.91076793	        514.75691719	        620.93242389	        884.54032957	        674.36841837	        575.55708337	        290.40829471	        405.18864594	        760.75867990	
          2.62000000	          0.00000000	          0.00000000	        317.26303128	        509.89864470	        358.61267107	          0.00000000	          0.00000000	          0.00000000	          0.00000000	          0.00000000	          0.00000000	          0.00000000	          0.00000000	          0.00000000	          0.00000000	          0.00000000	          0.00000000	          0.00000000	          0.00000000	         -0.84817523	          3.39582133	         -2.08631086	         24.12423897	        -49.68132401	          9.96344948	         87.83347321	         90.35991669	          0.00000000	          0.00000000	          0.00000000	          0.00000000	          0.00000000	          0.00000000	          0.00000000	          0.00000000	          0.00000000	        673.13311870	        518.25845147	        620.46597516	        884.55786449	        674.38145737	        575.56959586	        293.54370461	        406.63848780	        760.99050661	
